<svg xmlns="http://www.w3.org/2000/svg" viewBox="0,0,46.688,42.78">
  <path id="icon_shopping" fill-rule="evenodd" d="M44.908 5.2a2.67 2.67 0 0 0-2.092-1.02H15.7a2.662 2.662 0 0 0-2.54 3.48l4.992 15.61a1.664 1.664 0 0 0 1.58 1.15h20.3a1.663 1.663 0 0 0 1.61-1.27l3.762-15.68a2.666 2.666 0 0 0-.496-2.27zm-.64 22.17H18.08a2.123 2.123 0 0 1-2.03-1.47L8.845 3.54A5.077 5.077 0 0 0 4 .01H2.422a2.43 2.43 0 0 0 0 4.86H4a.243.243 0 0 1 .224.16l7.208 22.36a6.974 6.974 0 0 0 6.65 4.84H44.27a2.43 2.43 0 0 0-.003-4.86zM19.8 35.03a3.87 3.87 0 1 0 3.872 3.87 3.87 3.87 0 0 0-3.87-3.87zm20.33 0A3.87 3.87 0 1 0 44 38.9a3.87 3.87 0 0 0-3.87-3.87z"/>
</svg>
