<svg xmlns="http://www.w3.org/2000/svg" preserveAspectRatio="xMidYMid" width="54.1" height="54.1" viewBox="0 0 54.125 54.12"><defs><style>.cls-1 { fill: #262626; fill-rule: evenodd; }</style></defs><path d="M53.2 15c-3 .6-6.4 2-8 2.7-.4-.8-1-1.5-1.7-2.2l-5-5c-.5-.6-1.3-1-2-1.6.7-1.8 2-5 2.6-8 .4-1 1.7-1.5 2.4-.6 1 1.4 2 3.3 1.7 4.7l7.4-3c1-.2 2 .8 1.5 1.8l-3 7c1.4-.2 3.3.8 4.7 2 1 .5.6 1.8-.4 2zM42 17c4.4 4.6 4 11.8-.7 15.8l-10.3-6 5.2 9-18.8 10.7-6.7-3.6 3 5.5-9 5c-.6.4-1 .5-1.6.5-2 0-3.7-2.3-2.5-4.5l11.8-21 8.3 5.2-5.8-9.6 5.4-9.3C22 11 25.8 9 29.5 9c2.8 0 5.5 1 7.6 3.2l5 5z" class="cls-1"/></svg>