<svg xmlns="http://www.w3.org/2000/svg" viewBox="0,0,53,53.16">
  <path id="icon_delivery" d="M40.425 37.09c.64.04 1.284.09 1.917.11a19.053 19.053 0 0 1-14.61 8.46c.3-.58.6-1.18.885-1.78a16.714 16.714 0 0 0 4.427-1.17.3.3 0 0 0 .04-.08 1.207 1.207 0 0 1 .212-.37l-.084-.21.185-.26a2.647 2.647 0 0 1 .34-.45c.13-.1 1.23-1.05 1.468-1.23.207-.16 1.118-.85 1.517-1.17.054-.04.1-.09.135-.11a7.782 7.782 0 0 0 .943-1.16 6.034 6.034 0 0 0 .354-.8c.76.09 1.52.16 2.27.22zm-18.612 1.29c-.072-.01.02.04.082.07a.1.1 0 0 0-.082-.07zM36.1 37.04c.19.02.44 0 .627 0h.056a1.327 1.327 0 0 0 .63-.24l.02-.01-.7-.09c-.23-.04-.465-.07-.7-.1a.36.36 0 0 1 .23.25c-.136.05-.37.16-.163.19zm-14.2 1.41v.01c.066.03.044.01-.004-.01zm5.92-14.15a.226.226 0 0 1 .027.03c.012-.03-.032-.03-.032-.03zm6.32 4.17h-.04l-.035.15c-.167.62-.335 1.24-.513 1.86.144 0 .278.01.278.01a.4.4 0 0 0 .2-.27 2.027 2.027 0 0 1 .16-.43s.04.01.11.02a.714.714 0 0 0 .1-.34 2.96 2.96 0 0 0-.124-.5 5.292 5.292 0 0 1 .06-.53zm-.834 2.84l-.084.28.13-.02s.032.09.08.21a.865.865 0 0 0 .05-.12 1.286 1.286 0 0 0-.045-.27.2.2 0 0 0-.135-.08zm1.64-6.02l-.04-.02c-.093.38-.18.76-.275 1.13a.32.32 0 0 0 .29.06 3.35 3.35 0 0 0 .4.02c.28 0 .33.04.38-.08s.07.06.07-.25a.638.638 0 0 0-.24-.53 2.4 2.4 0 0 0-.56-.33zm17.992 8.4c-.844 3.16-10.02 3.54-21.66 1.21-3.81 11.27-8.724 19.05-11.87 18.2-1.986-.53-2.87-4.39-2.67-10.09.07.04.138.08.2.11a19.072 19.072 0 0 1-9.47-15.29c.553.29 1.115.57 1.686.85 2.04.97 4.178 1.87 6.348 2.67h-.008l.006.11-.312.56-.29.18.08.13.05.26h-.158v.58a.523.523 0 0 0 .42.29l-.13.08a1.22 1.22 0 0 0 .158.34 2.518 2.518 0 0 1 .29.58c.052.18.13.7.13.7s.343.58.5.82a7.612 7.612 0 0 1 .6.82c.13.26.42.13.968.26a2.193 2.193 0 0 1 .784.31 5.225 5.225 0 0 0 .475.35 1.754 1.754 0 0 0 .863.1 2.626 2.626 0 0 1 .748.12l.094.01a1.317 1.317 0 0 1 .812.36l.027.01c.16.07.24.11.3.13a2.217 2.217 0 0 1 .04.45c.02.13.21-.03.34-.03a.5.5 0 0 1 .23.15.82.82 0 0 0 .13.06c.23.08.28-.08.28-.08l.26.32.21.28-.21.51-.18.18a1.9 1.9 0 0 0 0-.43c-.03-.18-.19.09-.19.09l-.16.5.57.55.17.16.38.34.02.07.21.62-.03.21.13.34a1.942 1.942 0 0 1-.32.1.485.485 0 0 1-.16.03.428.428 0 0 0-.25.18 1.844 1.844 0 0 0-.15.21 1.88 1.88 0 0 0 .14.24.87.87 0 0 0 .19.21c.03.03.07.04.1.07a.263.263 0 0 1 .08.02l-.02.03-.08.13c-.23.4-.52.88-.85 1.4a19.382 19.382 0 0 1-5.5-1.99c0 .01 0 .01.01.01.05 3.44.69 5.68 1.95 6.01 2.38.64 6.25-5.72 9.44-15.03-1.34-.3-2.7-.63-4.09-1.01C10.09 29.43-.95 23.22.05 19.49c.533-1.99 4.374-2.88 10.062-2.68l-.19.34A19.05 19.05 0 0 1 26.59 7.48h-.346c2.67-5.04 5.36-7.93 7.342-7.4 3.723 1 3.57 13.68-.343 28.32-.365 1.39-.76 2.74-1.164 4.06 9.63 1.88 17.05 1.71 17.7-.68.33-1.26-1.28-2.93-4.23-4.7v-.02a19.21 19.21 0 0 1-1.04 5.77c-.61.03-1.17.04-1.62.04-.37 0-.66-.01-.83-.02-.5-.02-.99-.04-1.49-.07a5.968 5.968 0 0 0 .18-.67 2.756 2.756 0 0 1 .11-.4l-.59-.14-.07-.38-.25-.05-.23.44a1.015 1.015 0 0 1-.86.51l.06-.31a.594.594 0 0 0-.34.04l-.03-.29a.707.707 0 0 0-.25-.32.86.86 0 0 1-.3-.27 1.178 1.178 0 0 1-.13-.27.054.054 0 0 0-.02-.02l.03-.16s.21-.23.39-.44.23.21.42.36a.405.405 0 0 1 .12.39.653.653 0 0 0 .26.06.233.233 0 0 1 .21.12l.3.11.3-.33a.29.29 0 0 1 .27-.21c.21 0 .03.27.03.43s.15 0 .56-.18a3.677 3.677 0 0 0 .63-.37.563.563 0 0 0 .32-.26 2.984 2.984 0 0 0 .27-.24l.32.21.36-.06.36-.21v.27a.5.5 0 0 0-.09.51c.15.21.18.15.09.42a.474.474 0 0 0 0 .42.79.79 0 0 1 .032.19 17.45 17.45 0 0 0-6.14-19c.05-.67.09-1.33.12-1.99A19.13 19.13 0 0 1 45.5 26.6v-.27c5.02 2.68 7.904 5.37 7.37 7.36zM30.092 12.91s.19-.11.282-.15 0-.05-.093-.12a.2.2 0 0 0-.21.06.557.557 0 0 0-.1.17c0 .01-.01.02-.01.03-.05.06-.11-.1-.12-.19a.482.482 0 0 0-.35-.03.937.937 0 0 1 .08.17s.03.17.03.23a.512.512 0 0 0 .05.27 1.587 1.587 0 0 0 .2.21l.11-.07.04-.03.17-.27.13-.12zm-2.144-1.19s.022-.19.127-.17a.393.393 0 0 0 .21-.25.31.31 0 0 0-.19-.17c-.105 0-.335.03-.335.03l-.064-.13a.657.657 0 0 0-.295.04.148.148 0 0 1-.21-.08l-.02-.26-.23.07-.17-.15s-.06-.13.04-.13a2.343 2.343 0 0 1 .25.02l.21-.15-.08-.16.15-.17a.39.39 0 0 0-.36-.04.79.79 0 0 1-.3.19.3.3 0 0 0-.1-.23c-.12-.17.06-.26-.21-.19a.88.88 0 0 0-.37.17.5.5 0 0 0-.09.08.483.483 0 0 0-.31.17.523.523 0 0 0 .36.16.25.25 0 0 1 .05-.05c.06-.06.16-.15.23-.07a1.518 1.518 0 0 1 .19.23l-.4.21-.01-.01-.2-.16h-.4l-.19.09-.38.04a1.286 1.286 0 0 1 .07.29.375.375 0 0 1-.17.22l-.22-.02-.03-.01-.23.17a.893.893 0 0 0-.35.1.072.072 0 0 1-.05.03c-.1.03-.2-.04-.2.1 0 .17.02.25-.1.28a.4.4 0 0 0-.1.02c-.13.03-.3.06-.3.06a.88.88 0 0 0-.23.17 1.025 1.025 0 0 1-.34.17l-.03-.01-.38-.08-.54.23-.01.04-.11.26-.36.04a.76.76 0 0 0-.31.26.24.24 0 0 1-.12.13.418.418 0 0 1-.09.06.987.987 0 0 0-.54.41l-.08.19.15.22-.34.04.04.16c.17.17.277.26.38.17a.5.5 0 0 1 .167-.19c.07-.03.206-.07.32-.11.08-.03.16-.06.2-.08a1.45 1.45 0 0 1 .4-.19 1.8 1.8 0 0 0 .25-.02l.05-.04.287-.23.34.15.28-.04a.188.188 0 0 0 .05.12.16.16 0 0 0 .08.04 1.258 1.258 0 0 0 .31.04.36.36 0 0 1 .25-.14h.377l.04-.19.24.11.03.01.19.15s-.08.02.13.11a.514.514 0 0 0 .32.01.656.656 0 0 0 .08-.04l.36.09a.413.413 0 0 0-.09-.34 1.05 1.05 0 0 1-.31-.1l.23-.09.25-.04.07.28.4-.13-.063-.23.02-.36.38.06.026.25a.49.49 0 0 0 .15.05c.09.03.18.03.18-.05 0-.15-.08-.25.025-.25a1.68 1.68 0 0 0 .314-.06l.1-.15.15-.34.165.25.234-.15-.043-.21.5-.23s.3-.04.43-.04a.25.25 0 0 0 .17-.04s.08-.17-.045-.17a.367.367 0 0 1-.216-.1zm-5.03 8.17l-.21.1.486.23.238.01.178.01a1.2 1.2 0 0 0 .15-.42.212.212 0 0 1 .072-.17c.043-.03.108-.06.2-.12a.2.2 0 0 0 .086-.3.285.285 0 0 0-.287-.07.118.118 0 0 0-.05.01l-.35.17-.03.02-.16-.22-.23.07-.23.23a.445.445 0 0 1 .15.02.63.63 0 0 1 .23 0c.17.03-.04.17-.04.17l-.33.09zm.8-4.94l-.287.02a1.172 1.172 0 0 0 .01.48c0 .01.01.02.02.03a.5.5 0 0 0 .39.27.733.733 0 0 0 .29-.02c.19-.04.25-.05.26-.05l-.03.01a.055.055 0 0 0 .03-.01l.13-.05.17-.07a.568.568 0 0 0 .27-.31c0-.15-.23-.1-.42-.1h-.02c-.17-.01-.16-.03-.24-.24s-.08.13-.08.13a.325.325 0 0 1-.16-.21 1.316 1.316 0 0 1-.1-.34l-.08.04-.24.13.06.12zM23.51 21s.084.11.21.28c.054.07.09.05.113 0a.244.244 0 0 1 .117-.17c.1 0 .023.17.15.15a3.675 3.675 0 0 1 .4-.02h.007l.18.21a.534.534 0 0 0 .233-.21c.022-.11.022-.11.19-.11s.105-.02.316-.19-.064-.31-.233-.4-.024-.23-.024-.23l.02-.3a1.752 1.752 0 0 0-.03-.25c-.02-.15-.07-.25-.09-.4a.128.128 0 0 0-.17-.11v-.19a1.932 1.932 0 0 0 .42-.04c.1-.04 0-.25 0-.25s-.25-.1-.44-.17-.07-.1.25-.12.04-.17.04-.17l-.26-.15a.835.835 0 0 1-.34.25.34.34 0 0 0-.1.06 1.577 1.577 0 0 0-.09.26v.17l.09.15.06.1a1.176 1.176 0 0 1-.06.18.573.573 0 0 1-.07.14.245.245 0 0 0 .04.27 2.18 2.18 0 0 1-.04.43c-.04.14-.36-.13-.36-.13l-.06.36h-.29l.04.19.07.05.12.1.13.19-.24-.09-.12-.04zm-3.3-9.51l-.36.38a1.926 1.926 0 0 0 .422.04 2.106 2.106 0 0 0 .408-.25c.128-.09.256-.17.35-.23a.39.39 0 0 1 .317-.11l.085.17-.507.3.59-.09.07-.06.228-.21.234-.28.357.02.135-.05.3-.11a1.357 1.357 0 0 0 .36-.36c.08-.15.13-.07.24-.04a.163.163 0 0 0 .1 0c.16-.04.08-.19.08-.34 0-.07.1-.08.22-.08a.665.665 0 0 0 .33-.03c.12-.09-.1-.25-.28-.3l-.06-.01a.208.208 0 0 1-.22-.18.146.146 0 0 0-.18-.09.47.47 0 0 0-.24.07c-.13.09-.38.11-.3-.06a.288.288 0 0 1 .04-.05 15.47 15.47 0 0 0-1.95.53c.15-.01.21 0 .3 0 .13 0-.13.15-.13.15a2.447 2.447 0 0 0-.49.22l-.01.01a.228.228 0 0 0-.05.22h.05a2.493 2.493 0 0 0 .26-.02 1.76 1.76 0 0 0 .46-.24 1.113 1.113 0 0 1 .17-.09 1.226 1.226 0 0 0 .18-.08c.14-.08.04.24.04.24l.4-.15.32-.02h.12l.12-.24-.25-.05-.13-.03.13-.13h.01a3.608 3.608 0 0 1 .54.03c.13.01 0 .16 0 .16l-.04.17-.15.27a2.622 2.622 0 0 1-.34.03h-.01a.612.612 0 0 0-.3.16l-.3.21h-.42l-.06.24-.34-.04a1.575 1.575 0 0 1-.06-.26c-.02-.15-.16 0-.16 0a.75.75 0 0 1-.2.36.157.157 0 0 1-.1.04.835.835 0 0 0-.38.26zm4.583-2.23c-.18.01-.36.03-.54.05a.333.333 0 0 0 .1.03c.126.02.022.06.022.16 0 .07.03.1.134.12.05.01.12.02.22.03.29.04.1-.08.06-.33a.227.227 0 0 1-.01-.06zm-1.134.24a.486.486 0 0 0 .04-.1c-.03 0-.06.01-.09.01a.173.173 0 0 1 .04.09zm2.41-.33a.306.306 0 0 0-.04.17c.02.19.06 0 .19-.04a.144.144 0 0 0 .11-.13h-.27zm-12.33 5.59l.26.02.33-.21.33.1-.19.09a2.6 2.6 0 0 0-.23.4.72.72 0 0 0 .5.1 2.61 2.61 0 0 0 .14-.57.67.67 0 0 1 .44-.27l.12-.34.21.15a.784.784 0 0 0 .1-.34.683.683 0 0 0-.4-.13l.37-.18.38.1-.09.74h.37l.08.13a3.6 3.6 0 0 1-.63.29.977.977 0 0 0-.34.28l-.21.23a.446.446 0 0 0 .25.17.172.172 0 0 1 .16.14.345.345 0 0 0 .23-.21.172.172 0 0 0-.09-.16s.19-.22.32-.36.8-.45.93-.59a.192.192 0 0 0 .04-.25l.31-.2s.09-.4.13-.5a6.085 6.085 0 0 1 .8-.55 1.637 1.637 0 0 1 .772-.36c.43-.1.13-.15.1-.27s-.35.16-.35.16l-.5-.15a.76.76 0 0 0 .42-.16.5.5 0 0 1 .31-.11c.15-.06.11-.12.11-.12h.23a2.5 2.5 0 0 0 .3-.36c.1-.17.34-.49.34-.49s-.527.3-.63.34a1.436 1.436 0 0 1-.4-.04 4 4 0 0 0-.53.29c-.21.09-.448.22-.448.22l-.31-.07-.25.11-.61.25a3.743 3.743 0 0 1 .36-.23l.5-.3.4-.1.03-.21c-.16.09-.32.17-.49.26a17.773 17.773 0 0 0-4.05 3.26zm15.83 17.17c.42-1.35.83-2.75 1.21-4.19 3.41-12.74 3.8-23.71.88-24.49-1.26-.34-2.93 1.27-4.69 4.23h-.06a19.022 19.022 0 0 1 5.79 1.05c.03.61.03 1.17.03 1.62 0 .37-.01.67-.02.84-.06 1.6-.2 3.24-.42 4.89a1.09 1.09 0 0 0-.25-.06.77.77 0 0 0-.23 0 1.51 1.51 0 0 1-.26-.27.81.81 0 0 0-.47-.3c-.27-.09-.25.1-.25.1a.912.912 0 0 1-.56.14.378.378 0 0 0-.38.33l-.23.19a.422.422 0 0 1-.27.21.738.738 0 0 0-.24.04 2.163 2.163 0 0 0-.07.4.163.163 0 0 1-.14.16 1.715 1.715 0 0 0-.3.08c-.12.05-.24.13-.37.19a2.006 2.006 0 0 1-.32.27c-.25.13-.33.19-.33.19l-.33.07.17.17-.26.05a.84.84 0 0 0 .01.28.393.393 0 0 0 .3.14 1.894 1.894 0 0 1-.39.23c-.21.09-.21.12-.19.21a.6.6 0 0 0 .49.37c.35.09.1-.02.26-.11a1.8 1.8 0 0 1 .33-.14 1.6 1.6 0 0 1 .21.51c0 .15-.05.45-.03.56s.19-.04.19-.04l-.157.18s.03.31.03.4.31.03.31-.05a.442.442 0 0 1 .43-.25c.26-.01.23-.05.23-.26a3.35 3.35 0 0 1 .05-.49l.3-.08s.17-.13.28-.24a.4.4 0 0 0 .07-.08c.036-.05-.006-.11-.07-.16s-.12-.09-.16-.13a.992.992 0 0 1-.12-.54.687.687 0 0 1 .02-.23.273.273 0 0 1 .26-.15.04.04 0 0 0 .03-.01c.12-.03.28-.24.5-.35s-.12-.12-.12-.12l.07-.35.486.05.17.21-.21.16-.24.36-.346.46.28.73a.915.915 0 0 0 .4.1.863.863 0 0 0 .438-.19 1.884 1.884 0 0 1 .51-.15l-.08.49a2.514 2.514 0 0 1-.363-.04 4.792 4.792 0 0 0-.59.15c-.25.03-.1.2-.1.32a.66.66 0 0 0 .344.28l-.27.17a.422.422 0 0 0-.37-.25.844.844 0 0 0-.3.47.543.543 0 0 0 .1.5 1.026 1.026 0 0 0-.34.11l-.06.03c-.17.12-.22.03-.22.03a.337.337 0 0 0-.22-.15 2.216 2.216 0 0 0-.42.24 1.91 1.91 0 0 1-.55 0l-.27-.29-.226.22a.69.69 0 0 1-.32-.2c-.12-.15 0-.12-.026-.24s-.07-.13-.07-.13l.12-.19.32-.2a1.074 1.074 0 0 0-.08-.64c-.15-.2-.15.2-.15.2l-.49.32.03.66-.1.3-.19-.05-.126.15a3.17 3.17 0 0 0-.313-.15.815.815 0 0 0-.55.25l-.05.11-.08.18-.27-.05-.146.18h-.3c-.12 0-.05.22-.05.22a.58.58 0 0 1-.18.14l-.04-.06a.27.27 0 0 0-.26.07.607.607 0 0 1-.16.07l-.13.02-.12-.32s-.09-.17-.18-.04a.25.25 0 0 0-.06.22l.04.22-.18.02-.03-.02-.09-.02-.31-.19-.05-.03s-.213-.03-.174.11.22.32.22.41a.06.06 0 0 0 .01.03.6.6 0 0 1 .31.15.512.512 0 0 1-.17.28.367.367 0 0 1 .12.27 1.94 1.94 0 0 1-.078.5c-.036.1-.125.07-.16.18a.447.447 0 0 1-.045.08 1.28 1.28 0 0 1-.136.19.9.9 0 0 1-.36.03 1.79 1.79 0 0 0-.33-.2.13.13 0 0 0-.08 0 .214.214 0 0 1-.233-.07 1.964 1.964 0 0 0-.43-.25.428.428 0 0 1-.21-.18l-.06-.04a.74.74 0 0 0-.22-.08.507.507 0 0 0-.234.16.834.834 0 0 1 0 .32.434.434 0 0 1-.07.34c-.105.08-.13.02-.143.17s.08.07-.07.21a2.308 2.308 0 0 1-.16.2.06.06 0 0 0-.03.02.558.558 0 0 0-.29.22.8.8 0 0 0-.126.43 2.332 2.332 0 0 0 .39.57l.053.02a.192.192 0 0 1 .163.15c0 .13-.15.18 0 .27a1.642 1.642 0 0 1 .16.16 3.33 3.33 0 0 0 .58.14c.294.06.59.11.59.11l.2-.14h.34l.09-.31.27-.01.02-.29s-.037-.29.05-.29a1.372 1.372 0 0 0 .3-.15l.24-.16s.065.01.16.03a.76.76 0 0 0 .376-.01 2.537 2.537 0 0 0 .29-.36.783.783 0 0 1 0-.33.07.07 0 0 1 .06-.05 1.092 1.092 0 0 1 .59.13.886.886 0 0 0 .49.23 1.14 1.14 0 0 0 .35-.19l.04-.03c.04-.03.15-.1.26-.19a.015.015 0 0 0 .01.01.523.523 0 0 1 .32.17.8.8 0 0 1 .07.5.74.74 0 0 0 .323.38c.09.1.526.68.668.86s.43.5.43.5l.14.34-.3.22a3.53 3.53 0 0 1-.435-.05.193.193 0 0 0-.2.07 1.54 1.54 0 0 1-.234-.18c-.16-.14-.05.02-.25.13s.25.27.36.36a3.01 3.01 0 0 1 .32.34c.07.09.254-.03.254-.18a2.23 2.23 0 0 1 .02-.27h.32l.2-.23.17-.14.07-.2-.12-.36a1.5 1.5 0 0 1 .3-.08.46.46 0 0 1 .18.27l.09.04a.834.834 0 0 0-.06-.31 2.06 2.06 0 0 0-.34-.3 3.123 3.123 0 0 1-.42-.2 4.2 4.2 0 0 1-.41-.64.47.47 0 0 1-.05-.31 2.863 2.863 0 0 0-.27-.32.59.59 0 0 1-.05-.31l.34-.21a.3.3 0 0 0 .1-.08.892.892 0 0 1 .26.42 1.533 1.533 0 0 0 .11.45.8.8 0 0 0 .54.25c.29.05.2.25.2.25a1.55 1.55 0 0 1 .3.54c.035.22.035.32.055.59a1.8 1.8 0 0 0 .23.56c.09.25.12.25.18.45.02.09.04.18.07.27-.18.66-.368 1.33-.567 2a1.96 1.96 0 0 0-.283.72.316.316 0 0 1-.136.05l-.38-.09a4.807 4.807 0 0 0-.85-.43 4.84 4.84 0 0 1-.42-.66.273.273 0 0 0-.315-.08 1.726 1.726 0 0 1-.63-.23c-.06-.07-.15-.18-.23-.26s-.12-.14-.12-.14a1.144 1.144 0 0 1 .12-.1.755.755 0 0 1 .243-.16c.13-.03-.05-.29-.21-.55s.42-.35.39-.48a.76.76 0 0 0-.43-.2l-.01-.01a1.093 1.093 0 0 0-.52 0l-.5-.1s-.16.05-.29.1a.212.212 0 0 1-.17-.02.594.594 0 0 1-.3-.3.365.365 0 0 0-.37-.12.523.523 0 0 1-.21-.06.4.4 0 0 0-.19-.06c-.12.01-.228.07-.36.09-.17.02-.4.08-.55.1-.03 0-.06.01-.08.01a1.11 1.11 0 0 0-.478.21c-.184.1-.234-.29-.234-.29a.948.948 0 0 1-.16-.02 2.652 2.652 0 0 1-.47-.14c-.39-.16-.21-.4-.21-.4l-.22.19a1.71 1.71 0 0 1-.17.15.677.677 0 0 1-.58.32.81.81 0 0 0-.523.16 2.864 2.864 0 0 0-.51.72 62.924 62.924 0 0 1-9.01-3.82c-.12-.07-.32-.18-.56-.31-.417-.24-.97-.56-1.55-.94a19.193 19.193 0 0 1 2.01-5.58c-.02.03-.03.05-.04.07-3.44.05-5.665.7-6 1.96-.78 2.92 8.89 8.06 21.6 11.48q2.17.555 4.24 1.02zm-3.87-5.38a.29.29 0 0 0-.09.23.348.348 0 0 0 .16.1.557.557 0 0 0 .22-.01c.04-.01.1-.03.15-.04.17-.05.07-.14.1-.26a1.6 1.6 0 0 1 .1-.41c.07-.12-.14-.21-.14-.21s-.17.23-.23.32l-.01.01a.83.83 0 0 1-.28.27zm.29-.95a.476.476 0 0 0 .34-.18c.05-.14.03-.07.09-.23s-.14.05-.14.05l-.23.14-.07.14-.04.09a.134.134 0 0 0 .03-.01z"/>
</svg>
