<svg xmlns="http://www.w3.org/2000/svg" preserveAspectRatio="xMidYMid" width="53" height="53.2" viewBox="0 0 53 53.16"><defs><style>.cls-1 { fill: #262626; fill-rule: evenodd; }</style></defs><path d="M40.4 37l2 .2c-1.6 2.4-3.8 4.4-6.4 6-2.6 1.5-5.4 2.3-8.3 2.5l1-1.8 4.3-2c0-1 .3-1 .3-1l.4-1c.2 0 1.3-1 1.5-2 .2 0 1-1 1.5-1h.2v-2h2zm-18.6 1.4zM36 37h.7c.3 0 .4 0 .7-.2h-.7l-.7-.2c.2 0 .3.2.3.2-.2 0-.4.2-.2.2zm-14 1.4zm5.8-14zm6.3 4v2.2h1v-.4l1-.4v-1.3h-1zm0 3v.4-.4zm2-6v1h1v-1zm18 8.3c-1 3-10 3.5-21 1.2-4 11-9 19-12 18-2-1-3-5-2-10h1c-3-2-5-4-7-7s-3-6-3-9l2 1c2 1 4 1 6.4 2h-1v1h.7v1h.3l.4.5c0 .5 0 0 1 .5v.6l.8.7h2c.8 0 0 0 1 .2v.2h.6c.4.3.4 0 .4 0v1l-.3.5v.7l1 .6.4.3.6 1v1h-1 1v1l-1 1c-2 0-4-1-5.7-2 0 3.6 1 6 2 6 3 1 7-5.5 10-15l-4-1C11 28 0 22 1 18c1-2 4.8-2.7 10-2.5 2-3 4-5.3 7-7 3-1 6.8-2 10-2 1.3-4.5 4-7.5 6-7 3.8 1 3.7 14-.3 29l-1 4c9.5 2 17 1.8 17.6-1 .2-1-1.4-3-4.3-4.3 0 2-.4 4-1 6h-4v-1h-.4v-1H40l-.3.5h-1s0-.2-.4-.2l-.3-1V30l.3-.4c.2-.2.3.3.4.4l.2.4v.2-.4.4-1h2s-.8 0 0 0v1c1-4.7 1-9.7-2-14-1-2.3-2.8-4-4.6-5.4v-2c2.2 1.5 4.2 3.6 6 6.2 1.5 3 2.3 6.2 2.3 9.5 5 2 8 5 7.3 7zM30 13l.4-.2v-.2H30v.3l-.2-1h-.3.8-.3zm-2-1.3s0-.2 0 0c.2 0 .3-.4.3-.4s0-.2-.2-.2v1h-1v-1h1v-1 2l1 1h-2v.8h-1v.3h-2v1h-1v.6h-1v.4h-1v.2h.5v-1h2v.4-1l.4-.5h.6v-1h1v-1h1v.7l.6-.3h1zM23 20h-.3l.5.2h.4l.2-.4c0-.2 0-.2.2-.3.2 0 .2 0 0-.3h-.5v.2l-.2-.3-.2 1h1c1 0 0 0 0 0h-1v1zm.7-5h-.3v.4c0 .2.2.3.4.3h1l.2-.5h-.5c-.2 0-.2 0-.2-.3 0 0-.2 0-.3-1h-.4zm-.2 6l.2.3c.2 0 .2-.2.2-.2v1h1v-3h-1c-1 0-1 0 0 0v2-1 1zm-3.3-9.5l-.4.4h.5l.4-1 .3-1h.3-.4 1V9h1s0-.4-1-.4L20 9v.5V9h.4v.4V9h1.3v.5l-1 .3-.4.2h-1v.2l-.3.3zm4.6-2.2h-.6c.3 0 .2 0 .2.2.2 0 .2 0 .3.2.3 0 0 0 0-.4zm-1 .2h-.2zm2.3-.3c0 .3 0 0 1 0zm-12 5.6h1l1-.2h1v.6h1V14l.8.6v-1h.3v.8h.6l-.4.4-.3.3v1h1v-1h.5v-1h1c1 0 0 0 0 0h-1 1v-1H23v-1l-.7.5h-1l-.4.3h-.4v.4h1v-1l-.4 1c-2 1-3 2-4 4zm16 17l1-4C35 15 35 4 32 3.3c-1.3-.4-3 1.2-4.7 4.2 2 0 4 .4 5.8 1v7-.3.2h-1v.8h-1v.5h-1v.2h-2 1-1 1v1h1s0-1 1-1h1v-1l1-.8c0-.4 0 0 0 0v.2l-.2.5.4 1h1l-.3 1h-1c-.4 0 0 1 0 1l.3.2c-.3 0-.2 0-.3.4v.6h-2l-1-.5-.3.3v-2h.5v-1l-.4 1v1H28v.3h-1v.3h-1v.2l-.4-.8v.2H24l.3.2h.3v1H22c-.4 0-.5-1-.5-1H21s.2 0 0 0c0 0 .2.2 0 .3 0 .5 0 .4-.2.6h-.2s-.2 0-.3.6l.3.2h.2v.3H23v.3-.6h2.5l.3-.4v.5h.8s.4.2.5 0l1-.3 1-.2s1 0 1 .7v.7l1 1 .7.6h.3-2c0-.3 0 0-.3 0l1 .3.5.4h1v-1h.7-2v-1c.3 0 .5.2.5.4l.3.2v1l.4 1v1c0 1 0 2-.3 2l-.6 1h-3c-1 0-1-.6-1-.8v.2c0-.2.2-.2.2-.2 0-.4 1-.4 1-.6h-2l-1-.4c0-.4 0 0 0 0v-1h-1s-.2 0-.3.3c-1 0-1-.2-1-.2h-1v1h-1l-.5 1-9-4h-1L9 24c.3-2 1-4 2-5-3.5 0-5.7 1-6 2-.8 3 9 8 21.5 12l4 1zm-4-5.3v.3h1c1 0 1 0 1-.2V26v.4zm1-1h1V25c0-.2 0 0 0 0v.4z" class="cls-1"/></svg>