<svg xmlns="http://www.w3.org/2000/svg" width="53.688" height="47.62">
  <path id="icon_product" d="M29.63 16.04a11.98 11.98 0 0 0 .877-3.92A12.5 12.5 0 0 0 27.94 3.8 10.59 10.59 0 0 0 24.647.93a7.054 7.054 0 0 0-3.363-.92 3.494 3.494 0 0 0-1.03.17c-.226.07-.346.11-.346.11s.03.12.074.35c.048.21.054.58.088.92a20.908 20.908 0 0 1-.133 2.65 16.774 16.774 0 0 0 .584 6.46 15.206 15.206 0 0 0 1.42 3.26 17.29 17.29 0 0 0 2.02 2.81c.66.72 2.14 2.41 2.67 2.83a24.685 24.685 0 0 0 .28-2.92c.06-.7.01-1.39 0-2.08s-.132-1.35-.19-2c-.115-.64-.273-1.25-.4-1.84q-.31-.84-.576-1.59c-.25-.46-.48-.88-.683-1.26a5.138 5.138 0 0 0-.642-.89c-.384-.49-.605-.76-.605-.76s.24.25.66.71a5.33 5.33 0 0 1 .715.86c.233.37.5.78.786 1.23l.71 1.58c.177.59.38 1.21.55 1.86.11.66.288 1.34.35 2.04s.166 1.42.16 2.14c.03.81.02 1.62-.02 2.41a2.7 2.7 0 0 0 .2-.2 10.677 10.677 0 0 0 1.718-2.82zm-6.39 5.95c.107.18.2.34.3.52a15.12 15.12 0 0 0-11.477 10.01l.357.04a15.364 15.364 0 0 1 2.28.32 1.76 1.76 0 0 1 .36-.96 4.334 4.334 0 0 1 3.6-1.73 24.147 24.147 0 0 1 7.047.8 5.7 5.7 0 0 0 3.89-.22c3.8-1.52 7.137-1.38 9.833.38.333.22.68.45 1.03.69a15.144 15.144 0 0 0-11.623-9.41c.145-.25.284-.51.445-.77a2.876 2.876 0 0 0 .406-1.03 2.114 2.114 0 0 1-.016-.28c-.542.68-1.028 1.37-1.457 2.02-.264-.03-.535-.04-.8-.06.138-1.02.253-2.11.307-3.25a2.74 2.74 0 0 1-.257.26 3.793 3.793 0 0 0-.5 1.39c-.094.53-.2 1.04-.306 1.54-.1 0-.19-.02-.28-.02a15.564 15.564 0 0 0-2.28.17c-.38-.56-.79-1.14-1.25-1.72a1.883 1.883 0 0 1-.02.27 2.83 2.83 0 0 0 .404 1.04zm8.77-4.16c.387-.37.827-.67 1.217-.99.42-.29.847-.54 1.237-.79q.64-.285 1.193-.54c.39-.12.747-.22 1.063-.31a3.626 3.626 0 0 1 .836-.14l.732-.08s-.264.05-.725.13a3.85 3.85 0 0 0-.81.2c-.3.11-.647.24-1.02.37l-1.117.62c-.368.27-.76.54-1.144.85-.36.34-.76.66-1.11 1.05a14.44 14.44 0 0 0-1.037 1.18 18.44 18.44 0 0 0-1.3 1.8c.52.02 2.2-.2 2.932-.29a12.24 12.24 0 0 0 2.553-.59 11.69 11.69 0 0 0 2.43-1.15 12.65 12.65 0 0 0 3.554-3.39 15.4 15.4 0 0 1 1.24-1.57c.188-.18.376-.39.51-.49s.216-.15.216-.15-.048-.09-.14-.25a2.588 2.588 0 0 0-.505-.6 5.29 5.29 0 0 0-2.375-1.15 7.993 7.993 0 0 0-3.3-.01 9.446 9.446 0 0 0-7.06 6.13 8.01 8.01 0 0 0-.424 2.47c0 .07.01.14.013.21.37-.47.77-.93 1.19-1.39.34-.4.76-.76 1.15-1.13zM9.78 14.52a15.69 15.69 0 0 1 1.238 1.57 12.777 12.777 0 0 0 3.554 3.39 11.61 11.61 0 0 0 2.432 1.15 12.19 12.19 0 0 0 2.55.59c.735.09 2.415.31 2.932.29a17.927 17.927 0 0 0-1.3-1.81c-.315-.42-.688-.79-1.035-1.18s-.75-.7-1.1-1.04c-.382-.31-.78-.58-1.143-.85-.395-.22-.773-.43-1.12-.62-.372-.14-.714-.26-1.016-.38a4.47 4.47 0 0 0-.813-.19c-.462-.08-.723-.13-.723-.13l.73.08a4.177 4.177 0 0 1 .838.13c.317.09.67.2 1.06.31.374.17.77.36 1.197.55.39.25.814.5 1.235.79.39.32.83.62 1.217.99s.8.72 1.153 1.13c.42.45.817.92 1.19 1.39 0-.07.018-.14.014-.22a7.942 7.942 0 0 0-.43-2.46 8.884 8.884 0 0 0-1.452-2.66 9.456 9.456 0 0 0-5.608-3.47 8 8 0 0 0-3.3 0 5.408 5.408 0 0 0-2.38 1.16 2.6 2.6 0 0 0-.507.6c-.09.16-.138.24-.138.24s.074.06.214.16.32.31.51.49zm36.934 25.09a31.982 31.982 0 0 0-8.566-7.59c-2.6-1.69-5.56-1.33-8.318-.22a7.405 7.405 0 0 1-4.985.26 22.747 22.747 0 0 0-6.555-.73 2.73 2.73 0 0 0-2.3 1.07c-.315.42 2.266 2.15 4.48 2.15-.41.82-7.567-.92-8.52-.85l-5.414-.69c-1.924-.16-1.92-.88-3.814.18a.465.465 0 0 1-.236.04 2.4 2.4 0 0 0-2.232.97 1.29 1.29 0 0 0-.13 1.36 1.267 1.267 0 0 0 1.07.52 36.883 36.883 0 0 0 6.483 2.24c2.335.58 4.61 1.28 6.942 1.81a10.158 10.158 0 0 1 2.81.87 10.658 10.658 0 0 0 5.92 1.26c2.39-.11 4.79-.01 7.2-.03a10.253 10.253 0 0 1 9.57 5.38l13.546-.03c-2.958-3.46-4.263-4.3-6.963-7.97z"/>
</svg>
