<svg xmlns="http://www.w3.org/2000/svg" preserveAspectRatio="xMidYMid" width="46.7" height="42.8" viewBox="0 0 46.688 42.78"><defs><style>.cls-1 { fill: #262626; fill-rule: evenodd; }</style></defs><path d="M44.3 32.2H18c-3 0-5.6-2-6.6-4.8L4.2 5H2.4C1 5 0 3.7 0 2.3 0 1 1 0 2.4 0H4c2.2 0 4.2 1.4 4.8 3.5L16 26c.3.8 1.2 1.4 2 1.4h26.3c1.3 0 2.4 1 2.4 2.4 0 1.3-1 2.4-2.4 2.4zm-2.7-9c0 .7-.8 1.2-1.6 1.2H19.7c-.7 0-1.3-.4-1.5-1l-5-15.7c-.3-1-.2-1.7.3-2.4s1.3-1 2.2-1h27c1 0 1.7.3 2.2 1 .3.5.5 1.4.3 2.2L41.6 23zM19.8 35c2 0 4 1.8 4 4 0 2-2 3.8-4 3.8s-4-1.8-4-4c0-2 2-3.8 4-3.8zM40 35c2.3 0 4 1.8 4 4 0 2-1.7 3.8-4 3.8-2 0-3.7-1.8-3.7-4 0-2 1.7-3.8 3.8-3.8z" class="cls-1"/></svg>