<svg xmlns="http://www.w3.org/2000/svg" preserveAspectRatio="xMidYMid" width="53.7" height="47.6" viewBox="0 0 53.688 47.62"><defs><style>.cls-1 { fill: #262626; fill-rule: evenodd; }</style></defs><path d="M40 47.6c-2-3.7-5.2-5.4-9.5-5.4h-7c-2.3.2-4.2-.2-6-1.2-1-.5-2-.7-3-1-2.2-.4-4.5-1-6.8-1.7-3.3-.8-4-1.3-6.5-2.2h-1c-.3 0-.3-1 0-1 .6 0 1.2-1 2.3-1h.2c2-1 2 0 3.8 0l5.4 1c1 0 8 2 8 1-2 0-5-2-5-2 0-1 1-1 2-1 2 0 4 0 6 1 1 1 3 1 5 0 3-1 5-1 8 0 3 2 6 5 8 8 3 4 4 5 7 8H40zm2.7-33.4l-1.2 1.6c-1 1.2-2 2.4-3.6 3.4l-3 1c-1 .4-2 .6-3 .7h-3l1-2 1-2 1-1 1-1s1 0 1-1l1-1 1-1h-2l-1 .5-2 1-1 1c-1 0-1 .5-1 1-1 .3-1 1-2 1.3v-2c0-1 1-2 1-2.7 1-1 1.6-1.6 2.6-2.2 1 0 2-1 3-1H37c1 0 2 .8 2.3 1l.2 1v1l-.7.7zm-13.4 7.5l-.5.7c5.4 1 9.7 4.5 11.7 9.4l-1-.6c-2.8-1.8-6-2-10-.4-1.2.5-2.5.6-3.8.2-2.4-.7-4.8-.8-7-.8-1.5 0-2.8.6-3.6 1.7v1l-2-1h-1c2-6 7-9 12-10v-2l-1-2-1-1c0-1-1-1-1-1h-2s0-1-1-1c0 0-1 0-1-1h-3 3l1 .2 2 1 1 1 1 1 1.4 2h-3c-1 0-1.6 0-2.5-.6l-3-.6c-1.8-1-3-2.3-3.8-3.3l-1.3-1-1-.7h1s0-.4.4-.6c.4-.4 1.3-1 2.3-1 1-.4 3-.4 4 0 1 0 2 .5 3 1l3 2.3 2 3 .3 3 1 2h2v-2c0-1 .4-1 .6-2 0 1.3-.3 2.4-.4 3.4h1l2-2-.2 1zm.3-5.7c-.5 1.2-1 2.2-1.7 3h-1v-4.4l-1-2c0-.8-1-1.4-1-2V9l-1-1.2c0-.4-1-.6-1-1l-1-.6V7l.3 1 .5 1 .4 1.7v2l.2 2v2c0 1-1 2-1 3l-2.7-3c-1-.8-1.6-1.7-2-2.8-1-1-1-3-1.6-4V0h.6c0-.2.5-.3 1-.3 1 0 2 .4 3.2 1 2 .5 3 1.5 4 2.7 1 1.2 2 2.6 2 4 .3 1.4 1 3 .4 4.3 0 2-.4 3-1 4z" class="cls-1"/></svg>