<svg xmlns="http://www.w3.org/2000/svg" viewBox="0,0,130,52">
  <path id="logo" d="M75.588.125c-1.693 0-3.19.472-4.492 1.416-1.302.95-2.442 2.23-3.418 3.84-.96 1.6-1.783 3.46-2.467 5.57-.66 2.1-1.22 4.32-1.68 6.64-.44 2.31-.78 4.66-1.02 7.03-.24 2.38-.43 4.64-.56 6.79-.11 1.94-.19 3.69-.22 5.32-.52.66-1.04 1.29-1.55 1.86-.34.38-.71.74-1.1 1.1-.37.34-.75.65-1.14.93-.37.28-.75.51-1.12.69-.37.16-.73.25-1.07.25-.45 0-.76-.21-.9-.63-.13-.44-.19-1.04-.19-1.8 0-.9.14-1.98.42-3.25.28-1.27.52-2.4.71-3.39.2-1.01.38-1.98.54-2.93.16-.96.25-1.83.25-2.61 0-.5-.05-.9-.14-1.19-.08-.29-.2-.52-.36-.68-.16-.16-.35-.27-.56-.32-.21-.05-.44-.07-.68-.07-.18 0-.37 0-.56.02h-.54c-.22 0-.43-.01-.64-.02-.2-.04-.39-.09-.59-.18-.19-.08-.35-.21-.48-.39-.13-.18-.27-.35-.42-.53-.13-.19-.3-.37-.51-.51-.21-.14-.51-.22-.88-.22-1.124 0-2.23.25-3.32.74-1.075.47-2.1 1.11-3.08 1.93-.98.82-1.88 1.77-2.71 2.86-.82 1.09-1.58 2.38-2.3 3.88-.54 1.13-.97 2.2-1.3 3.21-.08.05-.16.09-.24.14-1.31.8-2.59 1.64-3.86 2.54-1.26.88-2.52 1.76-3.79 2.64-1.25.88-2.552 1.67-3.903 2.37-1.35.7-2.773 1.27-4.27 1.71-1.48.42-3.09.63-4.81.63-1.39 0-2.63-.2-3.74-.61-1.11-.4-2.05-1.02-2.81-1.85-.77-.83-1.36-1.86-1.78-3.1-.41-1.25-.61-2.72-.61-4.39 0-1.172.11-2.45.34-3.832.24-1.4.58-2.84 1.02-4.32.44-1.48.97-2.96 1.59-4.442.63-1.5 1.34-2.93 2.12-4.3.78-1.38 1.63-2.672 2.54-3.88.93-1.203 1.905-2.25 2.93-3.124 1.03-.88 2.09-1.57 3.2-2.08 1.12-.52 2.27-.78 3.44-.78.994 0 1.83.15 2.52.46.7.29 1.27.69 1.71 1.19.44.486.75 1.065.95 1.73.19.65.29 1.34.29 2.074 0 1.38-.28 2.65-.83 3.81-.54 1.14-1.24 2.12-2.1 2.95-.85.83-1.81 1.47-2.88 1.93-1.06.45-2.11.68-3.15.68-.39 0-.72-.02-.98-.07-.24-.07-.454-.13-.63-.2-.18-.063-.34-.12-.49-.17-.145-.065-.317-.1-.51-.1-.33 0-.59.08-.78.247-.18.16-.32.37-.417.63-.1.26-.165.55-.197.88-.032.31-.05.61-.05.9v.56c.018.18.026.33.026.46 0 .75.37 1.33 1.1 1.74.73.39 1.84.59 3.32.59 1.12 0 2.25-.21 3.37-.63 1.12-.42 2.2-.99 3.242-1.71 1.04-.73 2.01-1.59 2.91-2.58.91-.99 1.7-2.05 2.37-3.17.662-1.14 1.183-2.32 1.56-3.54.39-1.24.584-2.46.584-3.66 0-1.79-.31-3.35-.93-4.666-.6-1.32-1.38-2.41-2.34-3.27-.96-.864-2.04-1.5-3.25-1.905-1.2-.425-2.39-.637-3.56-.637-1.81 0-3.55.29-5.226.88-1.67.58-3.27 1.4-4.78 2.44-1.516 1.02-2.94 2.24-4.276 3.64-1.33 1.38-2.56 2.88-3.68 4.51-1.1 1.63-2.1 3.33-2.98 5.1-.88 1.78-1.62 3.56-2.24 5.35-.6 1.773-1.07 3.524-1.39 5.25-.33 1.71-.49 3.31-.49 4.81 0 2.2.34 4.3 1 6.3.68 1.99 1.65 3.734 2.9 5.25 1.26 1.5 2.76 2.69 4.52 3.564 1.78.894 3.76 1.34 5.96 1.34 1.99 0 3.79-.15 5.42-.44 1.64-.29 3.14-.69 4.49-1.196 1.37-.49 2.62-1.06 3.74-1.73 1.12-.65 2.16-1.333 3.1-2.05.96-.732 1.85-1.464 2.66-2.2.83-.75 1.63-1.454 2.39-2.122l.04-.03c.08.39.19.77.33 1.13.34.85.8 1.57 1.37 2.17.57.59 1.22 1.047 1.95 1.37.75.31 1.51.46 2.29.46.74 0 1.47-.12 2.2-.362.74-.243 1.44-.55 2.1-.93.69-.39 1.31-.82 1.88-1.29.57-.47 1.05-.934 1.44-1.39.52 1.32 1.14 2.33 1.86 3.03.718.68 1.61 1.02 2.688 1.02.895 0 1.79-.22 2.685-.66.89-.44 1.73-.975 2.51-1.61.59-.475 1.11-.976 1.61-1.49 0 .065 0 .13.01.196.05.65.15 1.24.312 1.76.16.51.4.91.71 1.22.31.31.73.46 1.27.46.4 0 .74-.09 1-.26.26-.18.49-.44.71-.78.23-.36.46-.81.68-1.345.23-.55.52-1.193.88-1.93.72-1.48 1.51-2.913 2.39-4.3.9-1.4 1.76-2.65 2.59-3.76.83-1.12 1.57-2.05 2.22-2.78.66-.733 1.14-1.19 1.41-1.37l.51.07c-.05.05-.15.23-.316.53-.16.31-.36.71-.58 1.2l-.71 1.66c-.24.62-.47 1.25-.68 1.91-.195.65-.365 1.3-.51 1.953-.13.64-.2 1.21-.2 1.74 0 .78.107 1.61.32 2.49.21.88.53 1.69.95 2.44.425.73.96 1.34 1.61 1.83.67.47 1.45.71 2.347.71.586 0 1.195-.1 1.83-.3.65-.198 1.295-.44 1.93-.73.65-.31 1.29-.66 1.93-1.05.63-.39 1.22-.778 1.755-1.15.55-.39 1.05-.76 1.49-1.1l.8-.61c.32.673.71 1.303 1.17 1.88.76.93 1.72 1.67 2.86 2.22 1.15.556 2.49.83 4.02.83.98 0 1.94-.1 2.88-.31.96-.23 1.88-.52 2.76-.88.9-.38 1.74-.8 2.54-1.27.82-.47 1.57-.96 2.27-1.44l.36-.27c.23.39.48.76.76 1.12.768.92 1.72 1.67 2.86 2.22 1.158.55 2.5.83 4.03.83.97 0 1.93-.11 2.88-.32.96-.23 1.88-.52 2.76-.88.89-.38 1.74-.8 2.54-1.27.81-.47 1.57-.957 2.27-1.44 1.61-1.14 3.13-2.45 4.56-3.93l-3.15-3.27c-.63.612-1.4 1.27-2.32 1.97-.91.68-1.88 1.313-2.9 1.9-1.024.58-2.082 1.07-3.172 1.46-1.07.39-2.1.59-3.07.59-.31 0-.61-.03-.88-.1-.26-.067-.51-.18-.76-.34-.247-.16-.49-.39-.736-.68-.23-.298-.46-.66-.71-1.1 1.41-.39 2.72-.94 3.93-1.64 1.22-.7 2.27-1.5 3.15-2.4.87-.89 1.64-1.97 2.29-3.22.67-1.25 1-2.38 1-3.39 0-.93-.17-1.77-.49-2.52-.33-.74-.78-1.38-1.37-1.9-.57-.54-1.25-.95-2.03-1.24-.78-.29-1.63-.44-2.54-.44-1.12 0-2.15.2-3.074.61-.91.39-1.74.92-2.49 1.61-.73.66-1.37 1.45-1.93 2.34-.55.88-1.02 1.81-1.39 2.783-.36.98-.708 2.1-1.05 3.37-.345 1.255-.52 2.338-.52 3.25 0 .41.027.81.06 1.2-.85.63-1.743 1.217-2.69 1.76-1.025.584-2.083 1.073-3.173 1.463-1.07.39-2.1.59-3.07.59-.31 0-.6-.04-.88-.1-.26-.07-.51-.18-.753-.34-.24-.17-.49-.39-.73-.69-.23-.3-.46-.66-.71-1.1 1.42-.39 2.73-.94 3.93-1.64 1.22-.7 2.27-1.5 3.15-2.397.88-.896 1.648-1.97 2.3-3.22.67-1.25 1.006-2.38 1.006-3.39 0-.93-.16-1.77-.49-2.52-.324-.75-.78-1.383-1.37-1.904-.57-.538-1.24-.95-2.02-1.247-.78-.29-1.63-.44-2.54-.44-1.125 0-2.15.21-3.08.61-.91.39-1.74.93-2.49 1.61-.73.67-1.37 1.45-1.93 2.35-.55.88-1.015 1.81-1.39 2.78-.36.973-.706 2.1-1.05 3.37-.3 1.11-.46 2.073-.496 2.92-.54.59-1.08 1.16-1.63 1.67-.377.353-.77.702-1.198 1.05-.425.322-.857.62-1.296.88-.44.26-.88.47-1.32.64-.44.16-.85.24-1.244.24-.31 0-.56-.2-.76-.59-.19-.39-.29-.916-.29-1.567 0-1.19.15-2.328.44-3.42.31-1.09.89-2.38 1.76-3.88.86-1.497 1.45-2.76 1.76-3.81.31-1.05.47-2.14.47-3.24 0-.56-.07-1-.22-1.34-.15-.36-.33-.64-.56-.83-.21-.2-.44-.33-.69-.39-.24-.09-.46-.13-.66-.13-.78 0-1.615.29-2.51.88-.88.57-2.02 1.51-3.417 2.83-1.39 1.32-2.49 2.48-3.32 3.49-.83 1.01-1.58 1.952-2.25 2.83l-.49-.34c.56-1.03 1.19-2.22 1.91-3.57.73-1.35 1.47-2.786 2.22-4.3.75-1.53 1.48-3.1 2.194-4.717.712-1.63 1.35-3.23 1.9-4.81.57-1.58 1.025-3.1 1.367-4.568.34-1.46.514-2.8.514-4.002 0-.82-.06-1.55-.19-2.2-.13-.67-.365-1.24-.71-1.71-.32-.474-.77-.84-1.34-1.1-.57-.27-1.287-.4-2.167-.4zm-.807 4.662c.33 0 .49.62.49 1.858 0 .813-.22 2.074-.66 3.783-.42 1.71-1.11 3.808-2.07 6.3-.29.73-.66 1.626-1.12 2.684l-1.41 3.346c-.5 1.172-1.01 2.358-1.53 3.562-.52 1.205-1 2.32-1.44 3.346.15-1.855.36-3.753.64-5.69.12-.83.25-1.7.39-2.61.17-.928.34-1.865.52-2.81.2-.96.41-1.918.64-2.878.25-.96.51-1.888.78-2.783 1.13-2.637 2.1-4.648 2.93-6.032.83-1.383 1.46-2.076 1.88-2.076zM50.84 27.445L49 35.428c-.065.52-.212 1.172-.44 1.953-.21.79-.495 1.54-.853 2.27-.358.74-.78 1.36-1.27 1.88-.488.53-1.034.79-1.636.79-.37 0-.68-.09-.92-.27-.24-.19-.44-.44-.58-.73-.14-.31-.25-.65-.31-1.02-.05-.39-.07-.79-.07-1.19 0-.71.09-1.48.27-2.29.2-.81.52-1.76.98-2.83.46-1.07.92-1.97 1.39-2.71.47-.73.99-1.38 1.54-1.95.57-.57 1.17-1.01 1.81-1.34.64-.34 1.29-.51 1.96-.51zm47.436.073c.39 0 .716.237.976.71.276.47.415 1.073.415 1.805 0 .52-.284 1.18-.853 1.977-.57.797-1.156 1.432-1.76 1.904-.585.472-1.23.863-1.93 1.172-.68.293-1.32.44-1.902.44 0-.36.016-.79.05-1.296.03-.504.178-1.146.438-1.927.277-.782.512-1.433.707-1.953.213-.537.48-1.01.808-1.416.343-.424.757-.765 1.245-1.026.506-.26 1.11-.39 1.81-.39zm18.457 0c.39 0 .716.237.976.71.27.47.41 1.073.41 1.805 0 .52-.29 1.18-.86 1.977-.57.797-1.16 1.432-1.76 1.904-.59.472-1.23.863-1.93 1.172-.69.293-1.32.44-1.91.44 0-.36.01-.79.05-1.296.03-.504.18-1.146.44-1.927.28-.782.51-1.433.71-1.953.21-.537.48-1.01.8-1.416.34-.424.75-.765 1.24-1.026.5-.26 1.11-.39 1.81-.39z"/>
</svg>
